<?xml version="1.0" encoding="utf-8"?>
<!-- Generator: Adobe Illustrator 19.0.0, SVG Export Plug-In . SVG Version: 6.00 Build 0)  -->
<svg version="1.1" id="Layer_1" xmlns="http://www.w3.org/2000/svg" xmlns:xlink="http://www.w3.org/1999/xlink" x="0px" y="0px"
	 viewBox="0 0 227.9 324" style="enable-background:new 0 0 227.9 324;" xml:space="preserve">
<style type="text/css">
	.st0{clip-path:url(#SVGID_2_);fill:url(#SVGID_3_);}
	.st1{clip-path:url(#SVGID_5_);fill:url(#SVGID_6_);}
	.st2{clip-path:url(#SVGID_8_);fill:url(#SVGID_9_);}
	.st3{clip-path:url(#SVGID_11_);}
	.st4{clip-path:url(#SVGID_11_);fill:#D81C67;}
	.st5{clip-path:url(#SVGID_11_);fill:#54142C;}
</style>
<g>
	<defs>
		<path id="SVGID_1_" d="M81,242.3V324h65.2c45.1,0,81.7-36.6,81.7-81.7h-108c-38.9,0-38.9-30.9-38.9-34V242.3z"/>
	</defs>
	<clipPath id="SVGID_2_">
		<use xlink:href="#SVGID_1_"  style="overflow:visible;"/>
	</clipPath>
	
		<linearGradient id="SVGID_3_" gradientUnits="userSpaceOnUse" x1="-372.271" y1="1161.993" x2="-371.271" y2="1161.993" gradientTransform="matrix(-146.9045 0 0 146.9045 -54460.3984 -170435.9375)">
		<stop  offset="0" style="stop-color:#D81C68"/>
		<stop  offset="1.384760e-003" style="stop-color:#D81C68"/>
		<stop  offset="0.3021" style="stop-color:#C71A5E"/>
		<stop  offset="0.8966" style="stop-color:#9C1548"/>
		<stop  offset="1" style="stop-color:#941444"/>
	</linearGradient>
	<rect x="81" y="208.3" class="st0" width="146.9" height="115.7"/>
</g>
<g>
	<defs>
		<path id="SVGID_4_" d="M81,208.3V208C81,208,81,208.1,81,208.3"/>
	</defs>
	<clipPath id="SVGID_5_">
		<use xlink:href="#SVGID_4_"  style="overflow:visible;"/>
	</clipPath>
	
		<linearGradient id="SVGID_6_" gradientUnits="userSpaceOnUse" x1="80.994" y1="208.1301" x2="80.996" y2="208.1301" gradientTransform="matrix(-6.117000e-004 0 0 6.117000e-004 80.7684 207.4191)">
		<stop  offset="0" style="stop-color:#D81C68"/>
		<stop  offset="1.384760e-003" style="stop-color:#D81C68"/>
		<stop  offset="0.3021" style="stop-color:#C71A5E"/>
		<stop  offset="0.8966" style="stop-color:#9C1548"/>
		<stop  offset="1" style="stop-color:#941444"/>
	</linearGradient>
	<rect x="81" y="208" class="st1" width="0" height="0.3"/>
</g>
<g>
	<defs>
		<path id="SVGID_7_" d="M0,243c0,43.9,34.9,79.6,78.5,81v0H81h64.5c-60.1,0-64.2-87.2-64.5-105.1V81C81,36.3,44.7,0,0,0V243z"/>
	</defs>
	<clipPath id="SVGID_8_">
		<use xlink:href="#SVGID_7_"  style="overflow:visible;"/>
	</clipPath>
	
		<linearGradient id="SVGID_9_" gradientUnits="userSpaceOnUse" x1="-372.271" y1="1161.9141" x2="-371.271" y2="1161.9141" gradientTransform="matrix(-176.6562 -305.9775 -305.9775 176.6562 289916.6563 -318850.9375)">
		<stop  offset="0" style="stop-color:#D81C68"/>
		<stop  offset="1.384760e-003" style="stop-color:#D81C68"/>
		<stop  offset="0.3021" style="stop-color:#C71A5E"/>
		<stop  offset="0.8966" style="stop-color:#9C1548"/>
		<stop  offset="1" style="stop-color:#941444"/>
	</linearGradient>
	<polygon class="st2" points="36.4,387 -140.3,81 109.1,-63 285.8,243 	"/>
</g>
<g>
	<defs>
		<rect id="SVGID_10_" x="-372.3" y="-838" width="2000" height="2000"/>
	</defs>
	<clipPath id="SVGID_11_">
		<use xlink:href="#SVGID_10_"  style="overflow:visible;"/>
	</clipPath>
	<polygon class="st3" points="536,141.1 532.5,162 455.3,162 455.3,20.5 477.1,17.3 477.1,141.1 	"/>
	<polygon class="st3" points="654.1,142 650.7,162 570.5,162 570.5,18.9 648,18.9 651.5,38.9 592.4,38.9 592.4,78.6 641.1,78.6 
		641.1,98.6 592.4,98.6 592.4,142 	"/>
	<path class="st3" d="M770.7,120.9h-52.7L700.3,162h-23.7l67.7-148.2L811.7,162h-23.5L770.7,120.9z M762.3,101.7l-18-42.1
		l-18.2,42.1H762.3z"/>
	<path class="st3" d="M931.1,68.4c0,28.6-22.9,49.3-54.4,49.3h-14.3V162h-21.9V18.9h36.2C908.2,18.9,931.1,39.8,931.1,68.4
		 M908.6,68.4c0-17.4-13.7-29.8-33.1-29.8h-13.1V98h13.1C894.9,98,908.6,85.5,908.6,68.4"/>
	<polygon class="st3" points="965.8,20.5 987.7,17.3 987.7,162 965.8,162 	"/>
	<polygon class="st3" points="1053.3,82.9 1098.7,82.9 1098.7,103.1 1053.3,103.1 1053.3,162 1031.5,162 1031.5,18.9 1105.9,18.9 
		1109.3,39.1 1053.3,39.1 	"/>
	<polygon class="st3" points="1200.7,107 1200.7,162 1178.8,162 1178.8,106.8 1133.9,18.9 1158.2,18.9 1189.9,83.5 1221.5,18.9 
		1245.7,18.9 	"/>
	<path class="st4" d="M455.9,226.1h11.9c16.4,0,28.8,11.8,28.8,27.5s-12.3,27.5-28.8,27.5h-11.9V226.1z M467.8,275.4
		c12.8,0,22.5-9.4,22.5-21.9s-9.7-21.9-22.5-21.9h-5.9v43.7H467.8z"/>
	<polygon class="st4" points="520.4,226.6 526.3,225.5 526.3,281.1 520.4,281.1 	"/>
	<path class="st4" d="M597.2,251.3v26.3c-4.9,2.7-11.6,4.4-18.3,4.4c-16,0-28.7-12.5-28.7-28.5c0-16,12.9-28.5,29.3-28.5
		c5.7,0,10.9,1.5,15.5,3.9l-1.2,6.1c-4-2.8-9-4.4-14.3-4.4c-12.9,0-23,10.1-23,22.8c0,12.7,9.8,22.8,22.3,22.8
		c4.9,0,8.7-0.8,12.4-2.4v-17h-16l1.1-5.7H597.2z"/>
	<polygon class="st4" points="622.2,226.6 628.2,225.5 628.2,281.1 622.2,281.1 	"/>
	<polygon class="st4" points="670.9,231.7 670.9,281.1 665,281.1 665,231.7 649.1,231.7 650.2,226.1 685.7,226.1 686.8,231.7 	"/>
	<path class="st4" d="M730.2,262.1h-20.9l-8.1,19h-6.4l24.9-57l24.9,57h-6.4L730.2,262.1z M727.9,256.6l-8.1-18.9l-8.1,18.9H727.9z"
		/>
	<polygon class="st4" points="795.1,275.4 794,281.1 765.1,281.1 765.1,226.6 771,225.5 771,275.4 	"/>
	<path class="st4" d="M874.7,262.1h-20.9l-8.1,19h-6.4l24.9-57l24.9,57h-6.4L874.7,262.1z M872.4,256.6l-8.1-18.9l-8.1,18.9H872.4z"
		/>
	<path class="st4" d="M951.1,251.3v26.3c-4.9,2.7-11.6,4.4-18.3,4.4c-16,0-28.7-12.5-28.7-28.5c0-16,12.9-28.5,29.3-28.5
		c5.7,0,10.9,1.5,15.5,3.9l-1.2,6.1c-4-2.8-9-4.4-14.3-4.4c-12.9,0-23,10.1-23,22.8c0,12.7,9.8,22.8,22.3,22.8
		c4.9,0,8.7-0.8,12.4-2.4v-17h-16l1.1-5.7H951.1z"/>
	<polygon class="st4" points="1006.6,275.4 1005.5,281.1 975.7,281.1 975.7,226.1 1004.4,226.1 1005.5,231.7 981.7,231.7 
		981.7,249.9 1001.4,249.9 1001.4,255.6 981.7,255.6 981.7,275.4 	"/>
	<polygon class="st4" points="1076.4,283.5 1035.7,238.9 1035.7,281.1 1029.7,281.1 1029.7,223.7 1070.5,268.3 1070.5,226.6 
		1076.4,225.4 	"/>
	<path class="st4" d="M1099.9,253.6c0-16,12.7-28.5,29-28.5c5.2,0,9.9,1.3,14.2,3.5l-1.2,6.1c-3.7-2.4-8.4-3.9-13.2-3.9
		c-12.5,0-22.6,10.1-22.6,22.8c0,12.7,10,22.8,22.6,22.8c5.3,0,9.8-1.7,13.9-4.4l1.2,6.1c-4.6,2.6-9.7,4-15.1,4
		C1112.5,282.1,1099.9,269.5,1099.9,253.6"/>
	<polygon class="st4" points="1185.7,259.3 1185.7,281.1 1179.7,281.1 1179.7,259.3 1162.4,226.1 1169,226.1 1182.7,253 
		1196.5,226.1 1203.1,226.1 	"/>
	<line class="st5" x1="349.4" y1="-93.2" x2="349.4" y2="417.2"/>
	<rect x="346" y="-93.2" class="st3" width="6.9" height="510.4"/>
</g>
<g>
	<defs>
		<rect id="SVGID_12_" x="-372.3" y="-838" width="2000" height="2000"/>
	</defs>
	<clipPath id="SVGID_13_">
		<use xlink:href="#SVGID_12_"  style="overflow:visible;"/>
	</clipPath>
</g>
<g>
	<defs>
		<path id="SVGID_14_" d="M552.5,345.3v186.6h148.9c103.1,0,186.6-83.6,186.6-186.6v0H641.3c-88.8,0-88.8-70.5-88.8-77.7V345.3z"/>
	</defs>
	<clipPath id="SVGID_15_">
		<use xlink:href="#SVGID_14_"  style="overflow:visible;"/>
	</clipPath>
</g>
<g>
	<defs>
		<path id="SVGID_16_" d="M552.5,267.6v-0.6C552.5,267.1,552.5,267.3,552.5,267.6"/>
	</defs>
	<clipPath id="SVGID_17_">
		<use xlink:href="#SVGID_16_"  style="overflow:visible;"/>
	</clipPath>
</g>
<g>
	<defs>
		<path id="SVGID_18_" d="M367.5,347c0,100.3,79.8,181.9,179.3,184.9l0,0.1h5.7h0h147.2c-137.2,0-146.7-199.2-147.2-240V-23
			c0-102.2-82.8-185-185-185V347z"/>
	</defs>
	<clipPath id="SVGID_19_">
		<use xlink:href="#SVGID_18_"  style="overflow:visible;"/>
	</clipPath>
</g>
<g>
	<defs>
		<path id="SVGID_20_" d="M81,242.3V324h65.2c45.1,0,81.7-36.6,81.7-81.7h-108c-38.9,0-38.9-30.9-38.9-34V242.3z"/>
	</defs>
	<clipPath id="SVGID_21_">
		<use xlink:href="#SVGID_20_"  style="overflow:visible;"/>
	</clipPath>
</g>
<g>
	<defs>
		<path id="SVGID_22_" d="M81,208.3V208C81,208,81,208.1,81,208.3"/>
	</defs>
	<clipPath id="SVGID_23_">
		<use xlink:href="#SVGID_22_"  style="overflow:visible;"/>
	</clipPath>
</g>
<g>
	<defs>
		<path id="SVGID_24_" d="M0,243c0,43.9,34.9,79.6,78.5,81v0H81h64.5c-60.1,0-64.2-87.2-64.5-105.1V81C81,36.3,44.7,0,0,0V243z"/>
	</defs>
	<clipPath id="SVGID_25_">
		<use xlink:href="#SVGID_24_"  style="overflow:visible;"/>
	</clipPath>
</g>
<g>
	<defs>
		<rect id="SVGID_26_" x="-372.3" y="-838" width="2000" height="2000"/>
	</defs>
	<clipPath id="SVGID_27_">
		<use xlink:href="#SVGID_26_"  style="overflow:visible;"/>
	</clipPath>
</g>
<g>
	<defs>
		<rect id="SVGID_28_" x="-372.3" y="-838" width="2000" height="2000"/>
	</defs>
	<clipPath id="SVGID_29_">
		<use xlink:href="#SVGID_28_"  style="overflow:visible;"/>
	</clipPath>
</g>
<g>
	<defs>
		<path id="SVGID_30_" d="M552.5,345.3v186.6h148.9c103.1,0,186.6-83.6,186.6-186.6v0H641.3c-88.8,0-88.8-70.5-88.8-77.7V345.3z"/>
	</defs>
	<clipPath id="SVGID_31_">
		<use xlink:href="#SVGID_30_"  style="overflow:visible;"/>
	</clipPath>
</g>
<g>
	<defs>
		<path id="SVGID_32_" d="M552.5,267.6v-0.6C552.5,267.1,552.5,267.3,552.5,267.6"/>
	</defs>
	<clipPath id="SVGID_33_">
		<use xlink:href="#SVGID_32_"  style="overflow:visible;"/>
	</clipPath>
</g>
<g>
	<defs>
		<path id="SVGID_34_" d="M367.5,347c0,100.3,79.8,181.9,179.3,184.9l0,0.1h5.7h0h147.2c-137.2,0-146.7-199.2-147.2-240V-23
			c0-102.2-82.8-185-185-185V347z"/>
	</defs>
	<clipPath id="SVGID_35_">
		<use xlink:href="#SVGID_34_"  style="overflow:visible;"/>
	</clipPath>
</g>
<g>
	<defs>
		<path id="SVGID_36_" d="M81,242.3V324h65.2c45.1,0,81.7-36.6,81.7-81.7h-108c-38.9,0-38.9-30.9-38.9-34V242.3z"/>
	</defs>
	<clipPath id="SVGID_37_">
		<use xlink:href="#SVGID_36_"  style="overflow:visible;"/>
	</clipPath>
</g>
<g>
	<defs>
		<path id="SVGID_38_" d="M81,208.3V208C81,208,81,208.1,81,208.3"/>
	</defs>
	<clipPath id="SVGID_39_">
		<use xlink:href="#SVGID_38_"  style="overflow:visible;"/>
	</clipPath>
</g>
<g>
	<defs>
		<path id="SVGID_40_" d="M0,243c0,43.9,34.9,79.6,78.5,81v0H81h64.5c-60.1,0-64.2-87.2-64.5-105.1V81C81,36.3,44.7,0,0,0V243z"/>
	</defs>
	<clipPath id="SVGID_41_">
		<use xlink:href="#SVGID_40_"  style="overflow:visible;"/>
	</clipPath>
</g>
<g>
	<defs>
		<rect id="SVGID_42_" x="-372.3" y="-838" width="2000" height="2000"/>
	</defs>
	<clipPath id="SVGID_43_">
		<use xlink:href="#SVGID_42_"  style="overflow:visible;"/>
	</clipPath>
</g>
<g>
	<defs>
		<path id="SVGID_44_" d="M552.5,345.3v186.6h148.9c103.1,0,186.6-83.6,186.6-186.6v0H641.3c-88.8,0-88.8-70.5-88.8-77.7V345.3z"/>
	</defs>
	<clipPath id="SVGID_45_">
		<use xlink:href="#SVGID_44_"  style="overflow:visible;"/>
	</clipPath>
</g>
<g>
	<defs>
		<path id="SVGID_46_" d="M552.5,267.6v-0.6C552.5,267.1,552.5,267.3,552.5,267.6"/>
	</defs>
	<clipPath id="SVGID_47_">
		<use xlink:href="#SVGID_46_"  style="overflow:visible;"/>
	</clipPath>
</g>
<g>
	<defs>
		<path id="SVGID_48_" d="M367.5,347c0,100.3,79.8,181.9,179.3,184.9l0,0.1h5.7h0h147.2c-137.2,0-146.7-199.2-147.2-240V-23
			c0-102.2-82.8-185-185-185V347z"/>
	</defs>
	<clipPath id="SVGID_49_">
		<use xlink:href="#SVGID_48_"  style="overflow:visible;"/>
	</clipPath>
</g>
<g>
	<defs>
		<rect id="SVGID_50_" x="-372.3" y="-838" width="2000" height="2000"/>
	</defs>
	<clipPath id="SVGID_51_">
		<use xlink:href="#SVGID_50_"  style="overflow:visible;"/>
	</clipPath>
</g>
<g>
	<defs>
		<path id="SVGID_52_" d="M485.4,3.8c0,78.6,63.7,142.3,142.3,142.3S770,82.4,770,3.8s-63.7-142.3-142.3-142.3S485.4-74.8,485.4,3.8
			"/>
	</defs>
	<clipPath id="SVGID_53_">
		<use xlink:href="#SVGID_52_"  style="overflow:visible;"/>
	</clipPath>
</g>
<g>
	<defs>
		<path id="SVGID_54_" d="M625.7,43.1v40.1h32c22.1,0,40.1-17.9,40.1-40.1h-52.9c-19.1,0-19.1-15.1-19.1-16.7V43.1z"/>
	</defs>
	<clipPath id="SVGID_55_">
		<use xlink:href="#SVGID_54_"  style="overflow:visible;"/>
	</clipPath>
</g>
<g>
	<defs>
		<path id="SVGID_56_" d="M625.7,26.5v-0.1C625.7,26.3,625.7,26.4,625.7,26.5"/>
	</defs>
	<clipPath id="SVGID_57_">
		<use xlink:href="#SVGID_56_"  style="overflow:visible;"/>
	</clipPath>
</g>
<g>
	<defs>
		<path id="SVGID_58_" d="M586,43.5c0,21.5,17.1,39,38.5,39.7l0,0h1.2h31.6c-29.5,0-31.5-42.8-31.6-51.5v-67.6
			c0-21.9-17.8-39.7-39.7-39.7V43.5z"/>
	</defs>
	<clipPath id="SVGID_59_">
		<use xlink:href="#SVGID_58_"  style="overflow:visible;"/>
	</clipPath>
</g>
<g>
	<defs>
		<rect id="SVGID_60_" x="-372.3" y="-838" width="2000" height="2000"/>
	</defs>
	<clipPath id="SVGID_61_">
		<use xlink:href="#SVGID_60_"  style="overflow:visible;"/>
	</clipPath>
</g>
<g>
	<defs>
		<path id="SVGID_62_" d="M627.7-185.7C435.7-185.7,280-30,280,162v0c0,192,155.7,347.7,347.7,347.7h0
			c192,0,347.7-155.7,347.7-347.7v0C975.4-30,819.8-185.7,627.7-185.7L627.7-185.7z"/>
	</defs>
	<clipPath id="SVGID_63_">
		<use xlink:href="#SVGID_62_"  style="overflow:visible;"/>
	</clipPath>
</g>
<g>
	<defs>
		<path id="SVGID_64_" d="M622.9,258.1V356H701c54.1,0,97.9-43.8,97.9-97.9H669.5c-46.6,0-46.6-37-46.6-40.7V258.1z"/>
	</defs>
	<clipPath id="SVGID_65_">
		<use xlink:href="#SVGID_64_"  style="overflow:visible;"/>
	</clipPath>
</g>
<g>
	<defs>
		<path id="SVGID_66_" d="M622.9,217.4v-0.3C622.9,217.1,622.9,217.2,622.9,217.4"/>
	</defs>
	<clipPath id="SVGID_67_">
		<use xlink:href="#SVGID_66_"  style="overflow:visible;"/>
	</clipPath>
</g>
<g>
	<defs>
		<path id="SVGID_68_" d="M525.9,259c0,52.6,41.8,95.4,94,97l0,0h3h77.2c-72,0-76.9-104.5-77.2-125.9V65c0-53.6-43.4-97-97-97V259z"
			/>
	</defs>
	<clipPath id="SVGID_69_">
		<use xlink:href="#SVGID_68_"  style="overflow:visible;"/>
	</clipPath>
</g>
<g>
	<defs>
		<rect id="SVGID_70_" x="-372.3" y="-838" width="2000" height="2000"/>
	</defs>
	<clipPath id="SVGID_71_">
		<use xlink:href="#SVGID_70_"  style="overflow:visible;"/>
	</clipPath>
</g>
<g>
	<defs>
		<rect id="SVGID_72_" x="-372.3" y="-838" width="2000" height="2000"/>
	</defs>
	<clipPath id="SVGID_73_">
		<use xlink:href="#SVGID_72_"  style="overflow:visible;"/>
	</clipPath>
</g>
<g>
	<defs>
		<path id="SVGID_74_" d="M625.7,43.1v40.1h32c22.1,0,40.1-17.9,40.1-40.1h-52.9c-19.1,0-19.1-15.1-19.1-16.7V43.1z"/>
	</defs>
	<clipPath id="SVGID_75_">
		<use xlink:href="#SVGID_74_"  style="overflow:visible;"/>
	</clipPath>
</g>
<g>
	<defs>
		<path id="SVGID_76_" d="M625.7,26.5v-0.1C625.7,26.3,625.7,26.4,625.7,26.5"/>
	</defs>
	<clipPath id="SVGID_77_">
		<use xlink:href="#SVGID_76_"  style="overflow:visible;"/>
	</clipPath>
</g>
<g>
	<defs>
		<path id="SVGID_78_" d="M586,43.5c0,21.5,17.1,39,38.5,39.7l0,0h1.2h31.6c-29.5,0-31.5-42.8-31.6-51.5v-67.6
			c0-21.9-17.8-39.7-39.7-39.7V43.5z"/>
	</defs>
	<clipPath id="SVGID_79_">
		<use xlink:href="#SVGID_78_"  style="overflow:visible;"/>
	</clipPath>
</g>
<g>
	<defs>
		<rect id="SVGID_80_" x="-372.3" y="-838" width="2000" height="2000"/>
	</defs>
	<clipPath id="SVGID_81_">
		<use xlink:href="#SVGID_80_"  style="overflow:visible;"/>
	</clipPath>
</g>
<g>
	<defs>
		<rect id="SVGID_82_" x="-372.3" y="-838" width="2000" height="2000"/>
	</defs>
	<clipPath id="SVGID_83_">
		<use xlink:href="#SVGID_82_"  style="overflow:visible;"/>
	</clipPath>
</g>
<g>
	<defs>
		<path id="SVGID_84_" d="M622.9,258.1V356H701c54.1,0,97.9-43.8,97.9-97.9H669.5c-46.6,0-46.6-37-46.6-40.7V258.1z"/>
	</defs>
	<clipPath id="SVGID_85_">
		<use xlink:href="#SVGID_84_"  style="overflow:visible;"/>
	</clipPath>
</g>
<g>
	<defs>
		<path id="SVGID_86_" d="M622.9,217.4v-0.3C622.9,217.1,622.9,217.2,622.9,217.4"/>
	</defs>
	<clipPath id="SVGID_87_">
		<use xlink:href="#SVGID_86_"  style="overflow:visible;"/>
	</clipPath>
</g>
<g>
	<defs>
		<path id="SVGID_88_" d="M525.9,259c0,52.6,41.8,95.4,94,97l0,0h3h77.2c-72,0-76.9-104.5-77.2-125.9V65c0-53.6-43.4-97-97-97V259z"
			/>
	</defs>
	<clipPath id="SVGID_89_">
		<use xlink:href="#SVGID_88_"  style="overflow:visible;"/>
	</clipPath>
</g>
<g>
	<defs>
		<rect id="SVGID_90_" x="-372.3" y="-838" width="2000" height="2000"/>
	</defs>
	<clipPath id="SVGID_91_">
		<use xlink:href="#SVGID_90_"  style="overflow:visible;"/>
	</clipPath>
</g>
<g>
	<defs>
		<rect id="SVGID_92_" x="-372.3" y="-838" width="2000" height="2000"/>
	</defs>
	<clipPath id="SVGID_93_">
		<use xlink:href="#SVGID_92_"  style="overflow:visible;"/>
	</clipPath>
</g>
<g>
	<defs>
		<path id="SVGID_94_" d="M625.7,43.1v40.1h32c22.1,0,40.1-17.9,40.1-40.1h-52.9c-19.1,0-19.1-15.1-19.1-16.7V43.1z"/>
	</defs>
	<clipPath id="SVGID_95_">
		<use xlink:href="#SVGID_94_"  style="overflow:visible;"/>
	</clipPath>
</g>
<g>
	<defs>
		<path id="SVGID_96_" d="M625.7,26.5v-0.1C625.7,26.3,625.7,26.4,625.7,26.5"/>
	</defs>
	<clipPath id="SVGID_97_">
		<use xlink:href="#SVGID_96_"  style="overflow:visible;"/>
	</clipPath>
</g>
<g>
	<defs>
		<path id="SVGID_98_" d="M586,43.5c0,21.5,17.1,39,38.5,39.7l0,0h1.2h31.6c-29.5,0-31.5-42.8-31.6-51.5v-67.6
			c0-21.9-17.8-39.7-39.7-39.7V43.5z"/>
	</defs>
	<clipPath id="SVGID_99_">
		<use xlink:href="#SVGID_98_"  style="overflow:visible;"/>
	</clipPath>
</g>
<g>
	<defs>
		<rect id="SVGID_100_" x="-372.3" y="-838" width="2000" height="2000"/>
	</defs>
	<clipPath id="SVGID_101_">
		<use xlink:href="#SVGID_100_"  style="overflow:visible;"/>
	</clipPath>
</g>
<g>
	<defs>
		<rect id="SVGID_102_" x="-372.3" y="-838" width="2000" height="2000"/>
	</defs>
	<clipPath id="SVGID_103_">
		<use xlink:href="#SVGID_102_"  style="overflow:visible;"/>
	</clipPath>
</g>
<g>
	<defs>
		<path id="SVGID_104_" d="M622.9,258.1V356H701c54.1,0,97.9-43.8,97.9-97.9H669.5c-46.6,0-46.6-37-46.6-40.7V258.1z"/>
	</defs>
	<clipPath id="SVGID_105_">
		<use xlink:href="#SVGID_104_"  style="overflow:visible;"/>
	</clipPath>
</g>
<g>
	<defs>
		<path id="SVGID_106_" d="M622.9,217.4v-0.3C622.9,217.1,622.9,217.2,622.9,217.4"/>
	</defs>
	<clipPath id="SVGID_107_">
		<use xlink:href="#SVGID_106_"  style="overflow:visible;"/>
	</clipPath>
</g>
<g>
	<defs>
		<path id="SVGID_108_" d="M525.9,259c0,52.6,41.8,95.4,94,97l0,0h3h77.2c-72,0-76.9-104.5-77.2-125.9V65c0-53.6-43.4-97-97-97V259z
			"/>
	</defs>
	<clipPath id="SVGID_109_">
		<use xlink:href="#SVGID_108_"  style="overflow:visible;"/>
	</clipPath>
</g>
<g>
	<defs>
		<rect id="SVGID_110_" x="-372.3" y="-838" width="2000" height="2000"/>
	</defs>
	<clipPath id="SVGID_111_">
		<use xlink:href="#SVGID_110_"  style="overflow:visible;"/>
	</clipPath>
</g>
</svg>
